<?xml version="1.0" encoding="UTF-8"?>
<!DOCTYPE svg PUBLIC "-//W3C//DTD SVG 1.1//EN" "http://www.w3.org/Graphics/SVG/1.1/DTD/svg11.dtd">
<svg xmlns="http://www.w3.org/2000/svg" version="1.1" width="25px" height="24px" style="shape-rendering:geometricPrecision; text-rendering:geometricPrecision; image-rendering:optimizeQuality; fill-rule:evenodd; clip-rule:evenodd" xmlns:xlink="http://www.w3.org/1999/xlink">
<g><path style="opacity:0.705" fill="#53acff" d="M 8.5,1.5 C 20.7929,1.41579 24.6262,7.08246 20,18.5C 16.6621,21.3181 12.8288,22.1515 8.5,21C 2.97524,18.0812 1.14191,13.5812 3,7.5C 4.35968,4.97739 6.19301,2.97739 8.5,1.5 Z M 10.5,3.5 C 18.3454,4.1552 21.1787,8.1552 19,15.5C 15.3356,20.1238 11.1689,20.6238 6.5,17C 3.02522,10.9626 4.35856,6.46261 10.5,3.5 Z"/></g>
<g><path style="opacity:0.691" fill="#53acff" d="M 11.5,5.5 C 12.8817,8.48797 14.5484,11.488 16.5,14.5C 14.7408,15.754 13.2408,15.4206 12,13.5C 11.5026,10.854 11.3359,8.1873 11.5,5.5 Z"/></g>
</svg>
