<?xml version="1.0" encoding="UTF-8"?>
<!DOCTYPE svg PUBLIC "-//W3C//DTD SVG 1.1//EN" "http://www.w3.org/Graphics/SVG/1.1/DTD/svg11.dtd">
<svg xmlns="http://www.w3.org/2000/svg" version="1.1" width="25px" height="24px" style="shape-rendering:geometricPrecision; text-rendering:geometricPrecision; image-rendering:optimizeQuality; fill-rule:evenodd; clip-rule:evenodd" xmlns:xlink="http://www.w3.org/1999/xlink">
<g><path style="opacity:0.714" fill="#53acff" d="M 9.5,1.5 C 15.8302,0.666213 18.6635,3.33288 18,9.5C 16.1871,11.7613 14.6871,14.0947 13.5,16.5C 17.5,17.1667 17.5,17.8333 13.5,18.5C 12.8333,22.5 12.1667,22.5 11.5,18.5C 7.5,17.8333 7.5,17.1667 11.5,16.5C 11.264,14.0268 9.93066,12.3601 7.5,11.5C 5.81543,7.58863 6.4821,4.25529 9.5,1.5 Z M 10.5,3.5 C 13.7703,3.30217 15.7703,4.80217 16.5,8C 13.3424,12.8014 10.6758,12.6347 8.5,7.5C 8.75166,5.92714 9.41833,4.5938 10.5,3.5 Z"/></g>
</svg>
