<?xml version="1.0" encoding="UTF-8"?>
<!DOCTYPE svg PUBLIC "-//W3C//DTD SVG 1.1//EN" "http://www.w3.org/Graphics/SVG/1.1/DTD/svg11.dtd">
<svg xmlns="http://www.w3.org/2000/svg" version="1.1" width="25px" height="24px" style="shape-rendering:geometricPrecision; text-rendering:geometricPrecision; image-rendering:optimizeQuality; fill-rule:evenodd; clip-rule:evenodd" xmlns:xlink="http://www.w3.org/1999/xlink">
<g><path style="opacity:0.734" fill="#53acff" d="M 8.5,1.5 C 20.3082,1.46554 23.8082,6.79887 19,17.5C 12.8656,23.2225 7.86562,22.2225 4,14.5C 2.3794,8.92269 3.8794,4.58936 8.5,1.5 Z M 10.5,3.5 C 15.5192,3.18165 18.5192,5.51498 19.5,10.5C 18.2865,14.5489 15.7865,17.5489 12,19.5C 7.30879,16.7844 5.30879,12.7844 6,7.5C 7.39683,5.92975 8.89683,4.59641 10.5,3.5 Z M 11.5,8.5 C 12.5862,8.61998 13.2528,9.28665 13.5,10.5C 12.6964,12.9573 11.6964,12.9573 10.5,10.5C 10.8627,9.81654 11.1961,9.14987 11.5,8.5 Z"/></g>
<g><path style="opacity:0.746" fill="#53adff" d="M 9.5,6.5 C 16.004,6.13765 17.6707,8.63765 14.5,14C 8.59335,14.7465 6.92668,12.2465 9.5,6.5 Z M 11.5,8.5 C 11.1961,9.14987 10.8627,9.81654 10.5,10.5C 11.6964,12.9573 12.6964,12.9573 13.5,10.5C 13.2528,9.28665 12.5862,8.61998 11.5,8.5 Z"/></g>
</svg>
