<?xml version="1.0" encoding="UTF-8"?>
<!DOCTYPE svg PUBLIC "-//W3C//DTD SVG 1.1//EN" "http://www.w3.org/Graphics/SVG/1.1/DTD/svg11.dtd">
<svg xmlns="http://www.w3.org/2000/svg" version="1.1" width="25px" height="24px" style="shape-rendering:geometricPrecision; text-rendering:geometricPrecision; image-rendering:optimizeQuality; fill-rule:evenodd; clip-rule:evenodd" xmlns:xlink="http://www.w3.org/1999/xlink">
<g><path style="opacity:0.719" fill="#53acff" d="M 10.5,1.5 C 13.6238,1.94286 15.9571,3.60952 17.5,6.5C 16.3493,7.73101 15.1827,7.73101 14,6.5C 13.8333,7 13.6667,7.5 13.5,8C 19.2215,11.6013 19.8882,15.9346 15.5,21C 8.33333,22.5 5.5,19.6667 7,12.5C 8.64363,10.9362 10.1436,9.26952 11.5,7.5C 11.3333,6.83333 11.1667,6.16667 11,5.5C 9.81452,7.55929 8.64786,7.72596 7.5,6C 8.31461,4.35659 9.31461,2.85659 10.5,1.5 Z M 10.5,11.5 C 13.7703,11.3022 15.7703,12.8022 16.5,16C 13.3424,20.8014 10.6758,20.6347 8.5,15.5C 8.75166,13.9271 9.41833,12.5938 10.5,11.5 Z"/></g>
</svg>
